#!OML:ASF I:\Actors\actors\Patient Classification 2\Patient 1\Session 1\actor1.ASF
:FULLY-SPECIFIED
:DEGREES
318
root -0.487742 18.64 5.81352 -1.71727 11.1665 -1.76988
lowerback 3.82129 4.85423 5.77986
upperback -2.58146 6.90183 1.75676
thorax -4.35837 3.27706 -1.88207
lowerneck -10.2238 -5.45334 -0.625584
upperneck 10.7917 -6.20479 -8.42004
head 4.66443 -3.60985 -2.92909
rclavicle 4.35338e-014 6.36111e-015
rhumerus 24.8054 8.13563 -48.3871
rradius 140.791
rwrist -12.4252
rhand -16.2918 -14.2622
rfingers 7.12502
rthumb 9.91861 -44.0086
lclavicle 4.35338e-014 6.36111e-015
lhumerus -48.0175 -4.54107 91.3845
lradius 51.8526
lwrist -2.76414
lhand -9.56191 -25.8315
lfingers 7.12502
lthumb 16.4055 3.49473
rfemur 0 0 0
rtibia 0
rfoot 0 0
rtoes 0
lfemur -5.99157 -6.87548 -12.8377
ltibia 24.5977
lfoot -19.105 2.53584
ltoes -56.7049
319
root -0.486932 18.6392 5.81143 -1.73647 11.1262 -1.72426
lowerback 3.83947 4.86755 5.744
upperback -2.57679 6.91819 1.74636
thorax -4.36532 3.28594 -1.87578
lowerneck -10.2692 -5.45134 -0.555894
upperneck 10.8625 -6.19783 -8.4966
head 4.68923 -3.61103 -2.9669
rclavicle 2.89729e-014 1.27222e-014
rhumerus 24.7662 8.05085 -48.4059
rradius 140.829
rwrist -12.6259
rhand -16.0541 -14.263
rfingers 7.12502
rthumb 10.148 -43.9983
lclavicle 2.89729e-014 1.27222e-014
lhumerus -48.0413 -4.56463 91.4013
lradius 51.8531
lwrist -2.75121
lhand -9.63651 -25.8793
lfingers 7.12502
lthumb 16.3337 3.45289
rfemur 0 0 0
rtibia 0
rfoot 0 0
rtoes 0
lfemur -5.94694 -6.95071 -12.913
ltibia 24.584
lfoot -19.1394 2.67211
ltoes -56.7239
320
root -0.487497 18.6391 5.80737 -1.74364 11.0985 -1.67047
lowerback 3.88165 4.88847 5.70415
upperback -2.58354 6.94685 1.73319
thorax -4.39712 3.29998 -1.87388
lowerneck -10.2554 -5.47248 -0.58182
upperneck 10.8594 -6.22736 -8.46139
head 4.6867 -3.62401 -2.95321
rclavicle 2.03754e-015 -1.19271e-014
rhumerus 24.7715 7.94843 -48.351
rradius 140.8
rwrist -12.7944
rhand -16.059 -14.3151
rfingers 7.12502
rthumb 10.1432 -44.0506
lclavicle 2.03754e-015 -1.19271e-014
lhumerus -48.1066 -4.72066 91.472
lradius 51.9226
lwrist -2.65251
lhand -9.68244 -25.8587
lfingers 7.12502
lthumb 16.2894 3.47705
rfemur 0 0 0
rtibia 0
rfoot 0 0
rtoes 0
lfemur -5.92389 -7.01316 -12.9792
ltibia 24.5739
lfoot -19.1807 2.74183
ltoes -56.6881
321
root -0.488339 18.6392 5.80225 -1.75772 11.104 -1.68353
lowerback 3.92399 4.89224 5.75267
upperback -2.58671 6.95773 1.72388
thorax -4.41706 3.30286 -1.91454
lowerneck -10.2323 -5.48878 -0.640854
upperneck 10.84 -6.25623 -8.34661
head 4.68137 -3.63239 -2.90896
rclavicle -3.03147e-015 -3.97569e-015
rhumerus 24.8017 7.85927 -48.31
rradius 140.758
rwrist -12.8915
rhand -16.1823 -14.3262
rfingers 7.12502
rthumb 10.0243 -44.0675
lclavicle -3.03147e-015 -3.97569e-015
lhumerus -48.1761 -4.92846 91.5349
lradius 52.0424
lwrist -2.54711
lhand -9.65311 -25.7832
lfingers 7.12502
lthumb 16.3177 3.55027
rfemur 0 0 0
rtibia 0
rfoot 0 0
rtoes 0
lfemur -5.92455 -7.02818 -12.9607
ltibia 24.567
lfoot -19.179 2.72274
ltoes -56.6636
322
root -0.488052 18.6402 5.79799 -1.75024 11.1174 -1.7188
lowerback 3.89773 4.87343 5.81341
upperback -2.57272 6.93324 1.72339
thorax -4.38236 3.29017 -1.94304
lowerneck -10.2544 -5.48666 -0.664016
upperneck 10.8372 -6.25796 -8.2755
head 4.68722 -3.63 -2.88425
rclavicle -6.27166e-014 -1.27222e-014
rhumerus 24.8411 7.85604 -48.3202
rradius 140.751
rwrist -12.862
rhand -16.3573 -14.271
rfingers 7.12502
rthumb 9.85541 -44.0204
lclavicle -6.27166e-014 -1.27222e-014
lhumerus -48.1568 -4.95078 91.5286
lradius 52.0922
lwrist -2.55995
lhand -9.65455 -25.7366
lfingers 7.12502
lthumb 16.3163 3.59698
rfemur 0 0 0
rtibia 0
rfoot 0 0
rtoes 0
lfemur -5.96023 -7.04342 -12.9192
ltibia 24.573
lfoot -19.1741 2.68299
ltoes -56.6036
323
root -0.487785 18.6415 5.79465 -1.74155 11.1256 -1.7614
lowerback 3.86234 4.84798 5.84866
upperback -2.56725 6.89895 1.73944
thorax -4.35707 3.2733 -1.93997
lowerneck -10.2754 -5.4882 -0.671423
upperneck 10.8481 -6.25875 -8.26606
head 4.69465 -3.63074 -2.8813
rclavicle 8.67695e-014 3.10104e-014
rhumerus 24.8738 7.87637 -48.3339
rradius 140.747
rwrist -12.7635
rhand -16.3445 -14.2757
rfingers 7.12502
rthumb 9.86776 -44.0244
lclavicle 8.67695e-014 3.10104e-014
lhumerus -48.1234 -4.88998 91.5073
lradius 52.0909
lwrist -2.59437
lhand -9.71635 -25.7234
lfingers 7.12502
lthumb 16.2568 3.61503
rfemur 0 0 0
rtibia 0
rfoot 0 0
rtoes 0
lfemur -5.99907 -7.07765 -12.8724
ltibia 24.5902
lfoot -19.1859 2.70425
ltoes -56.564
324
root -0.487825 18.6416 5.79189 -1.74241 11.136 -1.79552
lowerback 3.8419 4.83496 5.88806
upperback -2.57351 6.88271 1.74205
thorax -4.34918 3.26424 -1.95601
lowerneck -10.2594 -5.4985 -0.660831
upperneck 10.8543 -6.27643 -8.25154
head 4.69319 -3.63796 -2.8792
rclavicle 2.52457e-014 1.35174e-014
rhumerus 24.8418 7.84241 -48.3316
rradius 140.742
rwrist -12.6923
rhand -16.2623 -14.2986
rfingers 7.12502
rthumb 9.94709 -44.0436
lclavicle 2.52457e-014 1.35174e-014
lhumerus -48.1176 -4.88996 91.4912
lradius 52.0924
lwrist -2.5952
lhand -9.73267 -25.6959
lfingers 7.12502
lthumb 16.2411 3.64385
rfemur 0 0 0
rtibia 0
rfoot 0 0
rtoes 0
lfemur -6.02697 -7.0503 -12.832
ltibia 24.6043
lfoot -19.169 2.69861
ltoes -56.5898
325
root -0.487818 18.6418 5.79022 -1.74953 11.1227 -1.79744
lowerback 3.81262 4.83479 5.89658
upperback -2.564 6.87964 1.73332
thorax -4.32079 3.26345 -1.96596
lowerneck -10.2529 -5.50008 -0.613236
upperneck 10.8602 -6.28755 -8.23989
head 4.69203 -3.64084 -2.88371
rclavicle 1.01629e-013 1.19271e-014
rhumerus 24.7669 7.82659 -48.3398
rradius 140.763
rwrist -12.6453
rhand -16.3321 -14.2466
rfingers 7.12502
rthumb 9.87979 -43.9948
lclavicle 1.01629e-013 1.19271e-014
lhumerus -48.0666 -4.86006 91.4532
lradius 52.0571
lwrist -2.62188
lhand -9.67969 -25.6928
lfingers 7.12502
lthumb 16.2921 3.64279
rfemur 0 0 0
rtibia 0
rfoot 0 0
rtoes 0
lfemur -6.03089 -6.93429 -12.8179
ltibia 24.6062
lfoot -19.1372 2.58671
ltoes -56.584
326
root -0.487633 18.6425 5.7888 -1.75982 11.0974 -1.79272
lowerback 3.78059 4.82756 5.87575
upperback -2.54545 6.86526 1.73577
thorax -4.28682 3.25849 -1.94725
lowerneck -10.2538 -5.48977 -0.535733
upperneck 10.8523 -6.28388 -8.26129
head 4.68631 -3.6372 -2.90205
rclavicle 7.17116e-014 2.14687e-014
rhumerus 24.723 7.83163 -48.371
rradius 140.797
rwrist -12.6403
rhand -16.3035 -14.1057
rfingers 7.12502
rthumb 9.90731 -43.8525
lclavicle 7.17116e-014 2.14687e-014
lhumerus -48.0021 -4.78322 91.4036
lradius 52.0096
lwrist -2.66367
lhand -9.6464 -25.7359
lfingers 7.12502
lthumb 16.3241 3.59708
rfemur 0 0 0
rtibia 0
rfoot 0 0
rtoes 0
lfemur -6.01881 -6.87496 -12.8182
ltibia 24.6004
lfoot -19.1202 2.53049
ltoes -56.5589
327
root -0.486638 18.6428 5.78657 -1.74241 11.0934 -1.78495
lowerback 3.65119 4.79732 5.7765
upperback -2.48922 6.80894 1.80341
thorax -4.1779 3.23938 -1.80586
lowerneck -10.2427 -5.45744 -0.49446
upperneck 10.7721 -6.24499 -8.31898
head 4.65812 -3.61816 -2.92121
rclavicle 5.48149e-014 1.19271e-014
rhumerus 24.8513 7.8388 -48.3006
rradius 140.802
rwrist -12.6662
rhand -16.1905 -14.0172
rfingers 7.12502
rthumb 10.0164 -43.7588
lclavicle 5.48149e-014 1.19271e-014
lhumerus -47.9077 -4.58438 91.3946
lradius 51.9886
lwrist -2.73088
lhand -9.61959 -25.7944
lfingers 7.12502
lthumb 16.3499 3.53644
rfemur 0 0 0
rtibia 0
rfoot 0 0
rtoes 0
lfemur -6.04589 -6.85189 -12.8305
ltibia 24.5994
lfoot -19.0906 2.53333
ltoes -56.578
328
root -0.485583 18.6436 5.78391 -1.71307 11.0943 -1.78271
lowerback 3.45876 4.75456 5.59172
upperback -2.39685 6.72802 1.94711
thorax -4.01556 3.21386 -1.53162
lowerneck -10.2406 -5.4062 -0.486056
upperneck 10.6468 -6.1684 -8.45449
head 4.61805 -3.58586 -2.9559
rclavicle -2.82771e-014 2.14687e-014
rhumerus 25.141 7.8952 -48.12
rradius 140.763
rwrist -12.6954
rhand -16.2064 -14.0238
rfingers 7.12502
rthumb 10.001 -43.7662
lclavicle -2.82771e-014 2.14687e-014
lhumerus -47.7714 -4.26254 91.4427
lradius 51.9806
lwrist -2.82988
lhand -9.53836 -25.8305
lfingers 7.12502
lthumb 16.4282 3.49382
rfemur 0 0 0
rtibia 0
rfoot 0 0
rtoes 0
lfemur -6.09857 -6.77643 -12.8248
ltibia 24.6055
lfoot -19.0498 2.46188
ltoes -56.576
329
root -0.485268 18.6439 5.78172 -1.71963 11.0823 -1.82324
lowerback 3.38367 4.73616 5.53245
upperback -2.35103 6.69597 2.03958
thorax -3.94491 3.20404 -1.39401
lowerneck -10.2212 -5.38055 -0.449809
upperneck 10.5535 -6.13133 -8.57581
head 4.58273 -3.57129 -2.99335
rclavicle -1.04561e-013 -1.74931e-014
rhumerus 25.3022 7.9303 -48.0172
rradius 140.729
rwrist -12.6539
rhand -16.2641 -14.1545
rfingers 7.12502
rthumb 9.94535 -43.8996
lclavicle -1.04561e-013 -1.74931e-014
lhumerus -47.7008 -4.09648 91.4774
lradius 51.9842
lwrist -2.8662
lhand -9.46291 -25.8037
lfingers 7.12502
lthumb 16.5008 3.51459
rfemur 0 0 0
rtibia 0
rfoot 0 0
rtoes 0
lfemur -6.11921 -6.70293 -12.7712
ltibia 24.6178
lfoot -19.0434 2.40437
ltoes -56.601
330
root -0.484956 18.6431 5.77959 -1.74837 11.0796 -1.86771
lowerback 3.42086 4.74078 5.59277
upperback -2.35891 6.70888 2.0475
thorax -3.96783 3.20795 -1.42311
lowerneck -10.1729 -5.38295 -0.413128
upperneck 10.4966 -6.14298 -8.59731
head 4.55463 -3.57469 -3.00309
rclavicle -9.37767e-014 -3.4191e-014
rhumerus 25.2719 7.89502 -47.9999
rradius 140.74
rwrist -12.5966
rhand -16.2378 -14.4169
rfingers 7.12502
rthumb 9.97077 -44.1607
lclavicle -9.37767e-014 -3.4191e-014
lhumerus -47.7051 -4.12906 91.4872
lradius 51.9933
lwrist -2.83023
lhand -9.42865 -25.747
lfingers 7.12502
lthumb 16.5338 3.56863
rfemur 0 0 0
rtibia 0
rfoot 0 0
rtoes 0
lfemur -6.11775 -6.6685 -12.7288
ltibia 24.6379
lfoot -19.0414 2.41301
ltoes -56.6745
331
root -0.484966 18.6432 5.77727 -1.7719 11.0967 -1.88192
lowerback 3.47455 4.73822 5.62252
upperback -2.37254 6.71168 2.03999
thorax -4.00811 3.20685 -1.45283
lowerneck -10.1475 -5.38091 -0.37379
upperneck 10.4698 -6.14767 -8.60777
head 4.54015 -3.57504 -3.01111
rclavicle -1.73937e-014 4.77083e-015
rhumerus 25.2039 7.82937 -47.9951
rradius 140.759
rwrist -12.6313
rhand -16.1051 -14.4259
rfingers 7.12502
rthumb 10.0988 -44.1635
lclavicle -1.73937e-014 4.77083e-015
lhumerus -47.718 -4.17941 91.4855
lradius 51.9983
lwrist -2.81764
lhand -9.40595 -25.7181
lfingers 7.12502
lthumb 16.5556 3.59567
rfemur 0 0 0
rtibia 0
rfoot 0 0
rtoes 0
lfemur -6.11591 -6.66957 -12.7158
ltibia 24.6579
lfoot -19.0354 2.3854
ltoes -56.6322
332
root -0.484763 18.6435 5.77517 -1.79492 11.1122 -1.89873
lowerback 3.51541 4.72425 5.64996
upperback -2.37947 6.69811 2.03995
thorax -4.03631 3.19826 -1.47126
lowerneck -10.1668 -5.37754 -0.357863
upperneck 10.4921 -6.14213 -8.62023
head 4.54952 -3.57338 -3.01845
rclavicle 4.62174e-014 1.82882e-014
rhumerus 25.154 7.74863 -48.0294
rradius 140.773
rwrist -12.7907
rhand -15.8374 -14.0891
rfingers 7.12502
rthumb 10.357 -43.8141
lclavicle 4.62174e-014 1.82882e-014
lhumerus -47.7255 -4.18375 91.452
lradius 51.9999
lwrist -2.82069
lhand -9.36979 -25.7429
lfingers 7.12502
lthumb 16.5905 3.568
rfemur 0 0 0
rtibia 0
rfoot 0 0
rtoes 0
lfemur -6.11064 -6.69168 -12.6964
ltibia 24.6683
lfoot -19.0545 2.36086
ltoes -56.555
333
root -0.483558 18.6432 5.77286 -1.79715 11.1242 -1.89206
lowerback 3.53608 4.71428 5.6712
upperback -2.3905 6.6877 2.02862
thorax -4.05648 3.19147 -1.49632
lowerneck -10.1755 -5.38281 -0.3789
upperneck 10.5233 -6.14497 -8.60956
head 4.56154 -3.57582 -3.01323
rclavicle -2.08724e-014 1.98785e-014
rhumerus 25.1058 7.68115 -48.0778
rradius 140.807
rwrist -13.0175
rhand -15.5893 -13.9291
rfingers 7.12502
rthumb 10.5963 -43.642
lclavicle -2.08724e-014 1.98785e-014
lhumerus -47.7471 -4.17796 91.4067
lradius 52.0034
lwrist -2.79942
lhand -9.33526 -25.8344
lfingers 7.12502
lthumb 16.6237 3.47368
rfemur 0 0 0
rtibia 0
rfoot 0 0
rtoes 0
lfemur -6.12248 -6.69401 -12.7118
ltibia 24.6752
lfoot -19.0652 2.36925
ltoes -56.6132
